<svg width="30" height="29" viewBox="0 0 30 29" fill="none" xmlns="http://www.w3.org/2000/svg">
<path d="M2.24135 15.0771C2.34845 15.2616 2.61025 15.2616 2.71735 15.0771L4.73438 11.5786C4.84148 11.3941 4.71058 11.168 4.49638 11.168H3.39564V9.00821C3.39564 7.60997 4.53208 6.47353 5.93032 6.47353H8.58994V4.64095H5.93032C3.52654 4.64095 1.56901 6.59848 1.56901 9.00226V11.168H0.462321C0.254073 11.168 0.117225 11.3941 0.224324 11.5786L2.24135 15.0771Z" fill="#FFDA78"/>
<path d="M9.58359 26.1262C11.2102 26.1262 12.5288 24.8076 12.5288 23.181C12.5288 21.5544 11.2102 20.2357 9.58359 20.2357C7.95699 20.2357 6.63837 21.5544 6.63837 23.181C6.63837 24.8076 7.95699 26.1262 9.58359 26.1262Z" fill="#FFDA78"/>
<path d="M4.39522 24.1687C4.94071 24.1687 5.38291 23.7264 5.38291 23.181C5.38291 22.6355 4.94071 22.1933 4.39522 22.1933C3.84974 22.1933 3.40753 22.6355 3.40753 23.181C3.40753 23.7264 3.84974 24.1687 4.39522 24.1687Z" fill="#FFDA78"/>
<path d="M14.7719 24.1687C15.3174 24.1687 15.7596 23.7264 15.7596 23.181C15.7596 22.6355 15.3174 22.1933 14.7719 22.1933C14.2264 22.1933 13.7842 22.6355 13.7842 23.181C13.7842 23.7264 14.2264 24.1687 14.7719 24.1687Z" fill="#FFDA78"/>
<path d="M17.3542 17.3619H1.81296C0.914521 17.3619 0.182678 18.0938 0.182678 18.9922V27.3697C0.182678 28.2682 0.914521 29 1.81296 29H17.3483C18.2467 29 18.9785 28.2682 18.9785 27.3697V18.9922C18.9845 18.0938 18.2526 17.3619 17.3542 17.3619ZM17.5922 25.6859C17.497 25.668 17.4018 25.6621 17.3007 25.6621C16.3903 25.6621 15.6525 26.3999 15.6525 27.3102C15.6525 27.4114 15.6644 27.5125 15.6823 27.6137H3.58009C3.60984 27.4828 3.62769 27.3519 3.62769 27.2091C3.62769 26.2987 2.8899 25.5609 1.97956 25.5609C1.83676 25.5609 1.69991 25.5788 1.56901 25.6145V20.557C1.69991 20.5927 1.83676 20.6106 1.97956 20.6106C2.8899 20.6106 3.62769 19.8728 3.62769 18.9625C3.62769 18.8911 3.62174 18.8256 3.61579 18.7602H15.6763C15.6585 18.8613 15.6466 18.9625 15.6466 19.0636C15.6466 19.9739 16.3844 20.7117 17.2947 20.7117C17.3959 20.7117 17.4911 20.6998 17.5862 20.6879V25.6859H17.5922Z" fill="#FFDA78"/>
<path d="M26.9574 13.9229C26.8503 13.7384 26.5885 13.7384 26.4814 13.9229L24.4644 17.4214C24.3573 17.6059 24.4882 17.832 24.7024 17.832H25.8091V19.9918C25.8091 21.39 24.6726 22.5265 23.2744 22.5265H20.6088V24.3531H23.2684C25.6722 24.3531 27.6298 22.3956 27.6298 19.9918V17.832H28.7364C28.9447 17.832 29.0815 17.6059 28.9744 17.4214L26.9574 13.9229Z" fill="#FFDA78"/>
<path d="M19.6152 8.76426C21.2418 8.76426 22.5604 7.44564 22.5604 5.81904C22.5604 4.19244 21.2418 2.87382 19.6152 2.87382C17.9886 2.87382 16.67 4.19244 16.67 5.81904C16.67 7.44564 17.9886 8.76426 19.6152 8.76426Z" fill="#FFDA78"/>
<path d="M14.4268 6.80673C14.9723 6.80673 15.4145 6.36453 15.4145 5.81904C15.4145 5.27356 14.9723 4.83135 14.4268 4.83135C13.8814 4.83135 13.4391 5.27356 13.4391 5.81904C13.4391 6.36453 13.8814 6.80673 14.4268 6.80673Z" fill="#FFDA78"/>
<path d="M24.8035 6.80673C25.349 6.80673 25.7912 6.36453 25.7912 5.81904C25.7912 5.27356 25.349 4.83135 24.8035 4.83135C24.2581 4.83135 23.8159 5.27356 23.8159 5.81904C23.8159 6.36453 24.2581 6.80673 24.8035 6.80673Z" fill="#FFDA78"/>
<path d="M27.3858 0H11.8446C10.9461 0 10.2143 0.731842 10.2143 1.63028V10.0078C10.2143 10.9062 10.9461 11.6381 11.8446 11.6381H27.3799C28.2783 11.6381 29.0102 10.9062 29.0102 10.0078V1.62433C29.0102 0.725892 28.2843 0 27.3858 0ZM27.6238 8.31801C27.5286 8.30016 27.4334 8.29421 27.3323 8.29421C26.4219 8.29421 25.6841 9.03201 25.6841 9.94235C25.6841 10.0435 25.696 10.1446 25.7139 10.2458H13.6117C13.6415 10.1149 13.6593 9.984 13.6593 9.8412C13.6593 8.93086 12.9215 8.19306 12.0112 8.19306C11.8684 8.19306 11.7315 8.21092 11.6006 8.24661V3.18917C11.7315 3.22487 11.8684 3.24272 12.0112 3.24272C12.9215 3.24272 13.6593 2.50492 13.6593 1.59458C13.6593 1.52318 13.6534 1.45773 13.6474 1.39229H25.7079C25.6901 1.49343 25.6782 1.59458 25.6782 1.69573C25.6782 2.60607 26.416 3.34387 27.3263 3.34387C27.4275 3.34387 27.5227 3.33197 27.6179 3.32007V8.31801H27.6238Z" fill="#FFDA78"/>
</svg>
