<svg width="143" height="35" viewBox="0 0 143 35" fill="none" xmlns="http://www.w3.org/2000/svg">
<g clip-path="url(#clip0_1_17)">
<path fill-rule="evenodd" clip-rule="evenodd" d="M9.04543 2.51659V5.03319L7.6475 3.71681L6.24957 2.40044L5.50949 3.13606C4.56383 4.06527 4.39937 3.75553 6.8663 6.19469C9.41547 8.71128 9.29212 8.5177 8.14089 8.75C4.27602 9.52434 1.02789 12.7378 0.164462 16.5708L0 17.0741H1.39793H2.79586L3.12478 16.2611C3.82375 14.1704 5.92064 12.1571 8.01754 11.5763C8.46981 11.4602 8.88097 11.344 8.92208 11.3827C9.00431 11.3827 9.04543 14.635 9.04543 18.5841L9.08654 25.7854L8.63427 25.7467C6.49626 25.5144 3.78263 22.9978 3.00144 20.4425L2.75474 19.6681H1.39793H0L0.123347 20.3263C0.698965 23.9657 4.11156 27.4115 7.97642 28.3407C8.51093 28.4569 8.9632 28.6117 9.00431 28.6504C9.04543 28.6892 9.08654 30.1604 9.12766 31.8639L9.16878 35H10.6078H12.0469L12.088 31.7865L12.1291 28.573L12.8281 28.4181C17.1041 27.3728 20.0233 24.4303 21.0512 20.0553L21.1334 19.6294H19.6944H18.2553L18.0909 20.094C17.4741 22.7268 15.1305 25.0885 12.458 25.7854L12.088 25.8628V18.5841V11.3053L12.6225 11.4215C15.0072 11.8861 17.5975 14.3252 18.0909 16.6095L18.2142 17.1128H19.6121H21.0101L20.8867 16.4546C20.1466 12.6217 16.8574 9.52434 12.7869 8.75C11.7591 8.55642 11.6768 8.71128 14.3082 6.07854L16.4051 3.98783L15.5828 3.2135L14.7605 2.43916L13.4859 3.63938C11.8413 5.22677 11.8824 5.26549 12.0058 2.43916L12.088 0H10.5667H9.04543V2.51659ZM126.266 13.8993V25.708H127.458H128.651V22.3783C128.651 20.5586 128.692 19.0487 128.774 19.0487C128.856 19.0487 130.501 20.5586 132.433 22.3783L135.969 25.708H137.737H139.505L135.599 22.0686C133.461 20.0553 131.693 18.3905 131.693 18.3131C131.693 18.2356 133.502 16.6482 135.764 14.7124L139.834 11.2279L138.107 11.1892C136.01 11.1504 136.545 10.802 132.433 14.4027C130.542 16.0675 128.897 17.4226 128.815 17.4613C128.733 17.5 128.651 14.3252 128.651 9.79535V2.05199H127.458H126.266V13.8993ZM29.4799 6.38827C28.9043 6.89159 28.3698 7.35619 28.3286 7.35619C28.2875 7.39491 34.9482 7.39491 43.1302 7.39491H58.0141L58.0552 7.04646C58.0963 6.85288 58.0963 6.42699 58.0552 6.07854L58.0141 5.42035H44.2815H30.5489L29.4799 6.38827ZM61.18 5.73009C61.1389 5.88496 61.0978 7.16261 61.0978 8.55642C61.0978 9.95022 61.0566 11.1504 61.0155 11.1504C60.9744 11.1892 60.6044 11.2279 60.1521 11.2279L59.3709 11.2666L59.3298 12.3507L59.2887 13.4347H60.2343H61.18L61.2211 17.5387L61.2622 21.6427L61.7145 22.4945C62.8657 24.7013 64.5926 25.5531 68.0463 25.6305L70.5132 25.6692V24.6239V23.6173L68.3752 23.5398C65.8261 23.4624 65.0037 23.1914 64.1814 22.0686L63.688 21.4104L63.6469 17.4226L63.6058 13.4347H66.8951H70.1843L70.1432 12.3507L70.1021 11.2666L66.8539 11.2279L63.6058 11.1892V8.32411V5.45907H62.4135C61.4678 5.45907 61.2622 5.49779 61.18 5.73009ZM66.6072 6.38827L66.6484 7.31748L70.2665 7.39491L73.8847 7.47234L73.9258 16.5708L73.9669 25.6692H75.1593H76.3516L76.3928 16.5708L76.4339 7.47234L80.0109 7.43363L83.588 7.39491V6.42699V5.45907H75.0771H66.5661L66.6072 6.38827ZM86.4661 6.42699V7.39491H104.763H123.059L123.1 6.46571C123.141 5.96239 123.141 5.5365 123.1 5.49779C123.059 5.45907 114.795 5.42035 104.763 5.42035H86.4661V6.42699ZM131.405 6.42699V7.39491H134.571H137.737L138.354 6.69801C139.587 5.3042 139.957 5.45907 135.394 5.45907H131.364V6.42699M139.999 5.96239C140.163 6.11726 140.204 6.38827 140.163 6.73673C140.122 7.04646 140.163 7.27876 140.245 7.27876C140.327 7.27876 140.41 7.00774 140.41 6.62058C140.41 6.23341 140.492 5.92367 140.615 5.88496C140.739 5.84624 140.574 5.80752 140.286 5.80752C139.793 5.73009 139.793 5.76881 139.999 5.96239ZM141.355 5.84624C141.314 5.92367 141.355 6.27212 141.396 6.65929C141.479 7.27876 141.52 7.31748 141.52 6.81416L141.561 6.27212L141.808 6.77544C141.931 7.04646 142.095 7.27876 142.178 7.27876C142.26 7.27876 142.383 7.04646 142.507 6.77544L142.671 6.27212V6.77544C142.712 7.5885 143 7.31748 143 6.50442C143 5.5365 142.671 5.49779 142.342 6.38827L142.137 7.04646L141.89 6.38827C141.684 5.80752 141.479 5.57522 141.355 5.84624ZM31.5768 11.2666C26.684 12.3894 24.2582 17.6161 26.5607 21.9912C29.7266 27.9148 39.4298 26.9469 41.1978 20.4812C42.7602 14.906 37.5385 9.9115 31.5768 11.2666ZM88.3574 11.2666C85.2737 12.0409 83.1768 13.9768 82.6012 16.5708C82.4779 17.0354 82.4367 19.0487 82.4367 21.5265V25.6692H83.6291H84.8215L84.8626 21.2168L84.9037 16.7644L85.3971 15.8739C86.1783 14.4414 88.0285 13.396 89.7553 13.396C90.3309 13.396 90.6187 12.9701 90.6187 12.0796C90.6187 10.9956 90.1665 10.8407 88.3574 11.2666ZM97.5673 11.2666C91.2766 12.6991 89.4675 20.5586 94.5247 24.3916C96.4983 25.9015 99.7464 26.4049 102.049 25.5531C102.419 25.4369 102.748 22.9591 102.419 22.9591C102.378 22.9591 102.008 23.1139 101.555 23.3075C97.0739 25.2046 92.3456 20.5199 94.4425 16.2998C96.416 12.3894 102.419 12.2732 104.434 16.1062L104.968 17.1128L105.009 21.3717L105.05 25.6305H106.243H107.435V21.604C107.435 18.5841 107.394 17.3064 107.188 16.6095C106.243 12.6991 101.926 10.26 97.5673 11.2666ZM115.699 11.3053C108.792 13.0088 107.805 22.1847 114.26 25.1272C117.179 26.4823 121.209 25.979 123.141 24.0819L123.593 23.656L122.771 22.9204C122.196 22.3783 121.908 22.2235 121.743 22.3396C119.153 24.1206 116.563 24.2367 114.342 22.6106C111.958 20.9071 111.67 17.2677 113.726 15.0221C115.453 13.125 119.112 12.7765 121.455 14.3252L122.278 14.8673L123.1 14.1704C124.087 13.3186 124.087 13.2799 123.223 12.6604C121.168 11.1892 118.248 10.6858 115.699 11.3053ZM54.766 11.3053C54.6837 11.3827 54.6426 13.5509 54.6426 16.1836C54.6426 20.9071 54.6426 20.9845 54.2726 21.7588C52.8335 24.6626 47.7352 24.2754 46.7895 21.1781C46.7073 20.9071 46.6251 18.5841 46.6251 16.0288V11.3827H45.3916H44.1581L44.1993 16.4934L44.2404 21.604L44.7749 22.6106C46.3784 25.708 50.7366 26.9469 53.7381 25.1272C54.1492 24.8949 54.6015 24.7013 54.7248 24.7013C56.8217 24.7013 56.904 24.3529 56.904 17.1515V11.344L55.9172 11.2279C55.3416 11.1892 54.8071 11.2279 54.766 11.3053ZM35.935 13.7832C41.0745 16.2611 39.3887 23.656 33.6737 23.656C30.3433 23.656 28.1231 21.604 28.1231 18.5066C28.1642 14.635 32.3991 12.0796 35.935 13.7832ZM29.0276 30.1604L30.1377 31.1283H79.312H128.486V30.1604V29.1925H78.1607H27.8352L29.0276 30.1604ZM131.118 30.1604V31.1283H131.981H132.844V30.1604V29.1925H131.981H131.118V30.1604ZM135.435 30.1604V31.1283H139.135H142.836V30.1604V29.1925H139.135H135.435V30.1604Z" fill="white"/>
</g>
<defs>
<clipPath id="clip0_1_17">
<rect width="143" height="35" fill="white"/>
</clipPath>
</defs>
</svg>
