<?xml version="1.0" encoding="utf-8"?>
<!-- Generator: Adobe Illustrator 27.5.0, SVG Export Plug-In . SVG Version: 6.00 Build 0)  -->
<svg version="1.1" id="svg" xmlns="http://www.w3.org/2000/svg" xmlns:xlink="http://www.w3.org/1999/xlink" x="0px" y="0px"
	 viewBox="0 0 347.8 90.4" style="enable-background:new 0 0 347.8 90.4;" xml:space="preserve">
<style type="text/css">
	.st0{fill-rule:evenodd;clip-rule:evenodd;fill:#070707;}
</style>
<path id="path0" class="st0" d="M22,6.5v6.5l-3.4-3.4l-3.4-3.4l-1.8,1.9c-2.3,2.4-2.7,1.6,3.3,7.9c6.2,6.5,5.9,6,3.1,6.6
	c-9.4,2-17.3,10.3-19.4,20.2L0,44.1l3.4,0l3.4,0L7.6,42c1.7-5.4,6.8-10.6,11.9-12.1c1.1-0.3,2.1-0.6,2.2-0.5
	C21.9,29.4,22,37.8,22,48l0.1,18.6L21,66.5c-5.2-0.6-11.8-7.1-13.7-13.7l-0.6-2H3.4H0l0.3,1.7c1.4,9.4,9.7,18.3,19.1,20.7
	c1.3,0.3,2.4,0.7,2.5,0.8c0.1,0.1,0.2,3.9,0.3,8.3l0.1,8.1h3.5h3.5l0.1-8.3l0.1-8.3l1.7-0.4c10.4-2.7,17.5-10.3,20-21.6l0.2-1.1
	h-3.5h-3.5L44,51.9c-1.5,6.8-7.2,12.9-13.7,14.7l-0.9,0.2V48V29.2l1.3,0.3C36.5,30.7,42.8,37,44,42.9l0.3,1.3h3.4h3.4l-0.3-1.7
	C49,32.6,41,24.6,31.1,22.6c-2.5-0.5-2.7-0.1,3.7-6.9l5.1-5.4l-2-2l-2-2l-3.1,3.1c-4,4.1-3.9,4.2-3.6-3.1L29.4,0h-3.7H22V6.5
	 M307.1,35.9v30.5h2.9h2.9v-8.6c0-4.7,0.1-8.6,0.3-8.6c0.2,0,4.2,3.9,8.9,8.6l8.6,8.6l4.3,0l4.3,0l-9.5-9.4
	c-5.2-5.2-9.5-9.5-9.5-9.7s4.4-4.3,9.9-9.3l9.9-9l-4.2-0.1c-5.1-0.1-3.8-1-13.8,8.3c-4.6,4.3-8.6,7.8-8.8,7.9
	c-0.2,0.1-0.4-8.1-0.4-19.8v-20h-2.9h-2.9V35.9 M71.7,16.5c-1.4,1.3-2.7,2.5-2.8,2.5c-0.1,0.1,16.1,0.1,36,0.1h36.2l0.1-0.9
	c0.1-0.5,0.1-1.6,0-2.5l-0.1-1.7h-33.4H74.3L71.7,16.5 M148.8,14.8c-0.1,0.4-0.2,3.7-0.2,7.3c0,3.6-0.1,6.7-0.2,6.7
	c-0.1,0.1-1,0.2-2.1,0.2l-1.9,0.1l-0.1,2.8l-0.1,2.8h2.3h2.3l0.1,10.6l0.1,10.6l1.1,2.2c2.8,5.7,7,7.9,15.4,8.1l6,0.1v-2.7V61
	l-5.2-0.2c-6.2-0.2-8.2-0.9-10.2-3.8l-1.2-1.7l-0.1-10.3l-0.1-10.3h8h8l-0.1-2.8l-0.1-2.8l-7.9-0.1l-7.9-0.1v-7.4v-7.4h-2.9
	C149.5,14.1,149,14.2,148.8,14.8 M162,16.5l0.1,2.4l8.8,0.2l8.8,0.2l0.1,23.5l0.1,23.5h2.9h2.9l0.1-23.5l0.1-23.5l8.7-0.1l8.7-0.1
	v-2.5v-2.5h-20.7h-20.7L162,16.5 M210.3,16.6v2.5h44.5h44.5l0.1-2.4c0.1-1.3,0.1-2.4,0-2.5c-0.1-0.1-20.2-0.2-44.6-0.2h-44.5V16.6
	 M319.6,16.6v2.5h7.7h7.7l1.5-1.8c3-3.6,3.9-3.2-7.2-3.2h-9.8V16.6 M340.5,15.4c0.4,0.4,0.5,1.1,0.4,2c-0.1,0.8,0,1.4,0.2,1.4
	c0.2,0,0.4-0.7,0.4-1.7c0-1,0.2-1.8,0.5-1.9c0.3-0.1-0.1-0.2-0.8-0.2C340,14.8,340,14.9,340.5,15.4 M343.8,15.1
	c-0.1,0.2,0,1.1,0.1,2.1c0.2,1.6,0.3,1.7,0.3,0.4l0.1-1.4l0.6,1.3c0.3,0.7,0.7,1.3,0.9,1.3s0.5-0.6,0.8-1.3l0.4-1.3l0,1.3
	c0.1,2.1,0.8,1.4,0.8-0.7c0-2.5-0.8-2.6-1.6-0.3l-0.5,1.7l-0.6-1.7C344.6,15,344.1,14.4,343.8,15.1 M76.8,29.1
	C64.9,32,59,45.5,64.6,56.8c7.7,15.3,31.3,12.8,35.6-3.9C104,38.5,91.3,25.6,76.8,29.1 M214.9,29.1c-7.5,2-12.6,7-14,13.7
	c-0.3,1.2-0.4,6.4-0.4,12.8v10.7h2.9h2.9l0.1-11.5l0.1-11.5l1.2-2.3c1.9-3.7,6.4-6.4,10.6-6.4c1.4,0,2.1-1.1,2.1-3.4
	C220.4,28.4,219.3,28,214.9,29.1 M237.3,29.1c-15.3,3.7-19.7,24-7.4,33.9c4.8,3.9,12.7,5.2,18.3,3c0.9-0.3,1.7-6.7,0.9-6.7
	c-0.1,0-1,0.4-2.1,0.9c-10.9,4.9-22.4-7.2-17.3-18.1c4.8-10.1,19.4-10.4,24.3-0.5l1.3,2.6l0.1,11l0.1,11h2.9h2.9l0-10.4
	c0-7.8-0.1-11.1-0.6-12.9C258.4,32.8,247.9,26.5,237.3,29.1 M281.4,29.2c-16.8,4.4-19.2,28.1-3.5,35.7c7.1,3.5,16.9,2.2,21.6-2.7
	l1.1-1.1l-2-1.9c-1.4-1.4-2.1-1.8-2.5-1.5c-6.3,4.6-12.6,4.9-18,0.7c-5.8-4.4-6.5-13.8-1.5-19.6c4.2-4.9,13.1-5.8,18.8-1.8l2,1.4
	l2-1.8c2.4-2.2,2.4-2.3,0.3-3.9C294.7,28.9,287.6,27.6,281.4,29.2 M133.2,29.2c-0.2,0.2-0.3,5.8-0.3,12.6c0,12.2,0,12.4-0.9,14.4
	c-3.5,7.5-15.9,6.5-18.2-1.5c-0.2-0.7-0.4-6.7-0.4-13.3v-12h-3h-3l0.1,13.2l0.1,13.2l1.3,2.6c3.9,8,14.5,11.2,21.8,6.5
	c1-0.6,2.1-1.1,2.4-1.1c5.1,0,5.3-0.9,5.3-19.5l0-15L136,29C134.6,28.9,133.3,29,133.2,29.2 M87.4,35.6c12.5,6.4,8.4,25.5-5.5,25.5
	c-8.1,0-13.5-5.3-13.5-13.3C68.5,37.8,78.8,31.2,87.4,35.6 M70.6,77.9l2.7,2.5l119.6,0l119.6,0v-2.5v-2.5l-122.4,0l-122.4,0
	L70.6,77.9 M318.9,77.9v2.5h2.1h2.1v-2.5v-2.5H321h-2.1V77.9 M329.4,77.9v2.5h9h9v-2.5v-2.5h-9h-9V77.9"/>
</svg>
