<svg id="svg" version="1.1" xmlns="http://www.w3.org/2000/svg" xmlns:xlink="http://www.w3.org/1999/xlink" width="400" height="400" viewBox="0, 0, 400,400"><g id="svgg"><path id="path0" d="M47.656 161.613 L 47.656 168.148 44.227 164.734 L 40.798 161.321 38.954 163.194 C 36.608 165.575,36.295 164.829,42.285 171.136 C 48.460 177.637,48.204 177.101,45.421 177.703 C 36.024 179.737,28.079 188.014,25.987 197.949 L 25.719 199.219 29.168 199.213 L 32.617 199.208 33.307 197.037 C 35.035 191.594,40.123 186.428,45.244 184.917 C 46.388 184.579,47.385 184.364,47.459 184.438 C 47.534 184.513,47.653 192.923,47.723 203.127 L 47.852 221.680 46.685 221.553 C 41.491 220.988,34.934 214.421,32.974 207.820 L 32.392 205.859 29.037 205.859 L 25.681 205.859 25.937 207.520 C 27.386 216.909,35.623 225.847,45.057 228.266 C 46.314 228.588,47.427 228.938,47.532 229.042 C 47.636 229.147,47.751 232.894,47.787 237.370 L 47.852 245.508 51.367 245.508 L 54.883 245.508 54.988 237.220 L 55.094 228.932 56.746 228.510 C 67.157 225.849,74.249 218.192,76.731 206.934 L 76.968 205.859 73.452 205.859 L 69.937 205.859 69.697 206.934 C 68.173 213.757,62.530 219.813,55.957 221.678 L 55.078 221.928 55.078 203.120 L 55.078 184.313 56.348 184.579 C 62.142 185.791,68.442 192.095,69.709 197.949 L 69.984 199.219 73.418 199.219 L 76.852 199.219 76.539 197.541 C 74.705 187.723,66.668 179.647,56.748 177.650 C 54.231 177.144,54.007 177.562,60.425 170.788 L 65.574 165.353 63.538 163.342 L 61.502 161.331 58.397 164.455 C 54.362 168.513,54.522 168.653,54.835 161.328 L 55.102 155.078 51.379 155.078 L 47.656 155.078 47.656 161.613 M332.813 191.016 L 332.813 221.484 335.742 221.484 L 338.672 221.484 338.672 212.891 C 338.672 208.164,338.805 204.297,338.968 204.297 C 339.131 204.297,343.129 208.164,347.852 212.891 L 356.439 221.484 360.739 221.476 L 365.039 221.467 355.566 212.087 C 350.356 206.928,346.094 202.578,346.094 202.420 C 346.094 202.262,350.528 198.093,355.947 193.156 L 365.800 184.180 361.600 184.069 C 356.473 183.933,357.829 183.114,347.778 192.418 C 343.157 196.696,339.217 200.254,339.024 200.326 C 338.818 200.402,338.672 192.180,338.672 180.501 L 338.672 160.547 335.742 160.547 L 332.813 160.547 332.813 191.016 M97.353 171.552 C 95.909 172.878,94.653 174.021,94.564 174.091 C 94.474 174.161,110.678 174.219,130.572 174.219 L 166.743 174.219 166.867 173.340 C 166.936 172.856,166.931 171.714,166.855 170.801 L 166.718 169.141 133.349 169.141 L 99.980 169.141 97.353 171.552 M174.521 169.828 C 174.422 170.206,174.314 173.487,174.280 177.119 C 174.246 180.752,174.171 183.772,174.112 183.830 C 174.054 183.889,173.131 183.991,172.062 184.058 L 170.117 184.180 170.002 187.012 L 169.888 189.844 172.226 189.844 L 174.563 189.844 174.684 200.488 L 174.805 211.133 175.884 213.331 C 178.661 218.981,182.907 221.208,191.309 221.419 L 197.266 221.568 197.266 218.837 L 197.266 216.106 192.062 215.954 C 185.905 215.774,183.848 215.009,181.840 212.153 L 180.664 210.482 180.543 200.163 L 180.421 189.844 188.470 189.844 L 196.519 189.844 196.404 187.012 L 196.289 184.180 188.379 184.074 L 180.469 183.968 180.469 176.554 L 180.469 169.141 177.585 169.141 C 175.161 169.141,174.672 169.250,174.521 169.828 M187.643 171.582 L 187.695 174.023 196.484 174.219 L 205.273 174.414 205.374 197.949 L 205.475 221.484 208.398 221.484 L 211.322 221.484 211.423 197.949 L 211.523 174.414 220.215 174.309 L 228.906 174.204 228.906 171.672 L 228.906 169.141 208.249 169.141 L 187.591 169.141 187.643 171.582 M235.938 171.680 L 235.938 174.219 280.434 174.219 L 324.931 174.219 325.063 171.841 C 325.136 170.534,325.122 169.391,325.033 169.302 C 324.943 169.213,304.860 169.141,280.404 169.141 L 235.938 169.141 235.938 171.680 M345.313 171.680 L 345.313 174.219 353.042 174.219 L 360.772 174.219 362.320 172.386 C 365.366 168.777,366.174 169.141,355.100 169.141 L 345.313 169.141 345.313 171.680 M366.142 170.495 C 366.516 170.869,366.650 171.545,366.529 172.448 C 366.415 173.292,366.507 173.828,366.765 173.828 C 367.004 173.828,367.188 173.079,367.188 172.103 C 367.188 171.088,367.389 170.296,367.676 170.181 C 367.944 170.072,367.580 169.970,366.867 169.953 C 365.727 169.926,365.639 169.991,366.142 170.495 M369.443 170.215 C 369.369 170.376,369.420 171.299,369.556 172.266 C 369.789 173.914,369.809 173.938,369.878 172.656 L 369.952 171.289 370.504 172.559 C 370.808 173.257,371.215 173.828,371.409 173.828 C 371.603 173.828,371.945 173.257,372.169 172.559 L 372.576 171.289 372.616 172.559 C 372.681 174.630,373.438 174.001,373.438 171.875 C 373.438 169.398,372.598 169.240,371.882 171.582 L 371.375 173.242 370.811 171.582 C 370.287 170.039,369.764 169.516,369.443 170.215 M102.523 184.139 C 90.586 187.039,84.647 200.531,90.319 211.866 C 97.997 227.210,121.627 224.643,125.964 207.994 C 129.708 193.618,116.949 180.634,102.523 184.139 M240.625 184.219 C 233.102 186.226,228.031 191.201,226.607 197.968 C 226.348 199.201,226.172 204.376,226.172 210.761 L 226.172 221.484 229.075 221.484 L 231.978 221.484 232.102 210.030 L 232.227 198.575 233.405 196.271 C 235.289 192.590,239.819 189.844,244.006 189.844 C 245.381 189.844,246.094 188.695,246.094 186.479 C 246.094 183.519,244.976 183.057,240.625 184.219 M263.027 184.148 C 247.695 187.867,243.281 208.154,255.648 218.062 C 260.490 221.942,268.360 223.247,273.996 221.104 C 274.887 220.766,275.701 214.453,274.854 214.453 C 274.774 214.453,273.851 214.842,272.804 215.318 C 261.943 220.249,250.364 208.165,255.506 197.266 C 260.283 187.138,274.879 186.858,279.777 196.801 L 281.055 199.394 281.175 210.439 L 281.295 221.484 284.202 221.484 L 287.109 221.484 287.104 211.035 C 287.099 203.198,286.954 199.974,286.520 198.137 C 284.096 187.854,273.575 181.590,263.027 184.148 M307.031 184.302 C 290.204 188.701,287.872 212.411,303.516 220.050 C 310.615 223.517,320.369 222.275,325.094 217.302 L 326.165 216.175 324.208 214.247 C 322.766 212.827,322.113 212.420,321.729 212.702 C 315.473 217.312,309.113 217.570,303.690 213.434 C 297.898 209.016,297.181 199.659,302.187 193.811 C 306.392 188.898,315.283 188.032,321.017 191.976 L 322.991 193.334 324.972 191.553 C 327.365 189.401,327.379 189.206,325.257 187.609 C 320.422 183.969,313.270 182.672,307.031 184.302 M158.870 184.229 C 158.718 184.381,158.592 190.057,158.590 196.842 C 158.586 209.065,158.577 209.199,157.642 211.207 C 154.164 218.677,141.720 217.670,139.444 209.734 C 139.233 208.997,139.063 203.041,139.063 196.389 L 139.063 184.375 136.109 184.375 L 133.156 184.375 133.277 197.568 L 133.398 210.761 134.665 213.332 C 138.592 221.305,149.190 224.483,156.465 219.869 C 157.436 219.254,158.532 218.749,158.900 218.748 C 163.966 218.731,164.214 217.822,164.238 199.219 L 164.258 184.180 161.702 184.066 C 160.297 184.004,159.022 184.077,158.870 184.229 M113.104 190.720 C 125.600 197.119,121.494 216.195,107.619 216.203 C 99.509 216.207,94.141 210.920,94.141 202.930 C 94.141 192.927,104.451 186.289,113.104 190.720 M96.289 233.013 L 99.023 235.526 218.652 235.536 L 338.281 235.547 338.281 233.008 L 338.281 230.469 215.918 230.484 L 93.555 230.500 96.289 233.013 M344.531 233.008 L 344.531 235.547 346.680 235.547 L 348.828 235.547 348.828 233.008 L 348.828 230.469 346.680 230.469 L 344.531 230.469 344.531 233.008 M355.078 233.008 L 355.078 235.547 364.063 235.547 L 373.047 235.547 373.047 233.008 L 373.047 230.469 364.063 230.469 L 355.078 230.469 355.078 233.008 " stroke="none" fill="#070707" fill-rule="evenodd"></path><path id="path1" d="M0.000 200.000 L 0.000 400.000 200.000 400.000 L 400.000 400.000 400.000 200.000 L 400.000 0.000 200.000 0.000 L 0.000 0.000 0.000 200.000 M54.835 161.328 C 54.522 168.653,54.362 168.513,58.397 164.455 L 61.502 161.331 63.538 163.342 L 65.574 165.353 60.425 170.788 C 54.007 177.562,54.231 177.144,56.748 177.650 C 66.668 179.647,74.705 187.723,76.539 197.541 L 76.852 199.219 73.418 199.219 L 69.984 199.219 69.709 197.949 C 68.442 192.095,62.142 185.791,56.348 184.579 L 55.078 184.313 55.078 203.120 L 55.078 221.928 55.957 221.678 C 62.530 219.813,68.173 213.757,69.697 206.934 L 69.937 205.859 73.452 205.859 L 76.968 205.859 76.731 206.934 C 74.249 218.192,67.157 225.849,56.746 228.510 L 55.094 228.932 54.988 237.220 L 54.883 245.508 51.367 245.508 L 47.852 245.508 47.787 237.370 C 47.751 232.894,47.636 229.147,47.532 229.042 C 47.427 228.938,46.314 228.588,45.057 228.266 C 35.623 225.847,27.386 216.909,25.937 207.520 L 25.681 205.859 29.037 205.859 L 32.392 205.859 32.974 207.820 C 34.934 214.421,41.491 220.988,46.685 221.553 L 47.852 221.680 47.723 203.127 C 47.653 192.923,47.534 184.513,47.459 184.438 C 47.385 184.364,46.388 184.579,45.244 184.917 C 40.123 186.428,35.035 191.594,33.307 197.037 L 32.617 199.208 29.168 199.213 L 25.719 199.219 25.987 197.949 C 28.079 188.014,36.024 179.737,45.421 177.703 C 48.204 177.101,48.460 177.637,42.285 171.136 C 36.295 164.829,36.608 165.575,38.954 163.194 L 40.798 161.321 44.227 164.734 L 47.656 168.148 47.656 161.613 L 47.656 155.078 51.379 155.078 L 55.102 155.078 54.835 161.328 M338.672 180.501 C 338.672 192.180,338.818 200.402,339.024 200.326 C 339.217 200.254,343.157 196.696,347.778 192.418 C 357.829 183.114,356.473 183.933,361.600 184.069 L 365.800 184.180 355.947 193.156 C 350.528 198.093,346.094 202.262,346.094 202.420 C 346.094 202.578,350.356 206.928,355.566 212.087 L 365.039 221.467 360.739 221.476 L 356.439 221.484 347.852 212.891 C 343.129 208.164,339.131 204.297,338.968 204.297 C 338.805 204.297,338.672 208.164,338.672 212.891 L 338.672 221.484 335.742 221.484 L 332.813 221.484 332.813 191.016 L 332.813 160.547 335.742 160.547 L 338.672 160.547 338.672 180.501 M166.855 170.801 C 166.931 171.714,166.936 172.856,166.867 173.340 L 166.743 174.219 130.572 174.219 C 110.678 174.219,94.474 174.161,94.564 174.091 C 94.653 174.021,95.909 172.878,97.353 171.552 L 99.980 169.141 133.349 169.141 L 166.718 169.141 166.855 170.801 M180.469 176.554 L 180.469 183.968 188.379 184.074 L 196.289 184.180 196.404 187.012 L 196.519 189.844 188.470 189.844 L 180.421 189.844 180.543 200.163 L 180.664 210.482 181.840 212.153 C 183.848 215.009,185.905 215.774,192.062 215.954 L 197.266 216.106 197.266 218.837 L 197.266 221.568 191.309 221.419 C 182.907 221.208,178.661 218.981,175.884 213.331 L 174.805 211.133 174.684 200.488 L 174.563 189.844 172.226 189.844 L 169.888 189.844 170.002 187.012 L 170.117 184.180 172.062 184.058 C 173.131 183.991,174.054 183.889,174.112 183.830 C 174.171 183.772,174.246 180.752,174.280 177.119 C 174.360 168.492,174.091 169.141,177.585 169.141 L 180.469 169.141 180.469 176.554 M228.906 171.672 L 228.906 174.204 220.215 174.309 L 211.523 174.414 211.423 197.949 L 211.322 221.484 208.398 221.484 L 205.475 221.484 205.374 197.949 L 205.273 174.414 196.484 174.219 L 187.695 174.023 187.643 171.582 L 187.591 169.141 208.249 169.141 L 228.906 169.141 228.906 171.672 M325.033 169.302 C 325.122 169.391,325.136 170.534,325.063 171.841 L 324.931 174.219 280.434 174.219 L 235.938 174.219 235.938 171.680 L 235.938 169.141 280.404 169.141 C 304.860 169.141,324.943 169.213,325.033 169.302 M364.378 169.847 C 364.097 170.235,363.171 171.377,362.320 172.386 L 360.772 174.219 353.042 174.219 L 345.313 174.219 345.313 171.680 L 345.313 169.141 355.100 169.141 C 364.468 169.141,364.866 169.171,364.378 169.847 M367.676 170.181 C 367.389 170.296,367.188 171.088,367.188 172.103 C 367.188 173.079,367.004 173.828,366.765 173.828 C 366.507 173.828,366.415 173.292,366.529 172.448 C 366.650 171.545,366.516 170.869,366.142 170.495 C 365.639 169.991,365.727 169.926,366.867 169.953 C 367.580 169.970,367.944 170.072,367.676 170.181 M370.811 171.582 L 371.375 173.242 371.882 171.582 C 372.598 169.240,373.438 169.398,373.438 171.875 C 373.438 174.001,372.681 174.630,372.616 172.559 L 372.576 171.289 372.169 172.559 C 371.945 173.257,371.603 173.828,371.409 173.828 C 371.215 173.828,370.808 173.257,370.504 172.559 L 369.952 171.289 369.878 172.656 C 369.809 173.938,369.789 173.914,369.556 172.266 C 369.148 169.370,369.918 168.950,370.811 171.582 M112.229 184.176 C 129.304 188.624,131.797 212.642,115.959 220.103 C 102.489 226.448,87.998 217.180,88.190 202.344 C 88.351 189.900,100.103 181.018,112.229 184.176 M245.689 184.349 C 246.840 186.499,245.815 189.844,244.006 189.844 C 239.819 189.844,235.289 192.590,233.405 196.271 L 232.227 198.575 232.102 210.030 L 231.978 221.484 229.075 221.484 L 226.172 221.484 226.172 210.761 C 226.172 196.468,226.797 193.859,231.301 189.344 C 235.364 185.273,244.488 182.105,245.689 184.349 M272.620 184.195 C 279.545 185.828,284.880 191.178,286.520 198.137 C 286.954 199.974,287.099 203.198,287.104 211.035 L 287.109 221.484 284.202 221.484 L 281.295 221.484 281.175 210.439 L 281.055 199.394 279.777 196.801 C 274.879 186.858,260.283 187.138,255.506 197.266 C 250.364 208.165,261.943 220.249,272.804 215.318 C 273.851 214.842,274.774 214.453,274.854 214.453 C 275.701 214.453,274.887 220.766,273.996 221.104 C 264.492 224.717,252.411 218.902,249.379 209.254 C 244.716 194.413,257.498 180.631,272.620 184.195 M317.266 184.035 C 321.072 184.847,326.907 188.034,326.941 189.319 C 326.948 189.568,326.062 190.573,324.972 191.553 L 322.991 193.334 321.017 191.976 C 315.283 188.032,306.392 188.898,302.187 193.811 C 297.181 199.659,297.898 209.016,303.690 213.434 C 309.113 217.570,315.473 217.312,321.729 212.702 C 322.113 212.420,322.766 212.827,324.208 214.247 L 326.165 216.175 325.094 217.302 C 317.261 225.545,300.491 222.596,295.192 212.043 C 287.534 196.795,300.422 180.443,317.266 184.035 M164.238 199.219 C 164.214 217.822,163.966 218.731,158.900 218.748 C 158.532 218.749,157.436 219.254,156.465 219.869 C 149.190 224.483,138.592 221.305,134.665 213.332 L 133.398 210.761 133.277 197.568 L 133.156 184.375 136.109 184.375 L 139.063 184.375 139.063 196.389 C 139.063 203.041,139.233 208.997,139.444 209.734 C 141.720 217.670,154.164 218.677,157.642 211.207 C 158.577 209.199,158.586 209.065,158.590 196.842 C 158.594 182.860,158.337 183.916,161.702 184.066 L 164.258 184.180 164.238 199.219 M103.252 189.993 C 93.768 193.091,90.888 205.513,98.025 212.543 C 106.488 220.880,120.482 214.890,120.482 202.930 C 120.482 193.732,111.788 187.204,103.252 189.993 M338.281 233.008 L 338.281 235.547 218.652 235.536 L 99.023 235.526 96.289 233.013 L 93.555 230.500 215.918 230.484 L 338.281 230.469 338.281 233.008 M348.828 233.008 L 348.828 235.547 346.680 235.547 L 344.531 235.547 344.531 233.008 L 344.531 230.469 346.680 230.469 L 348.828 230.469 348.828 233.008 M373.047 233.008 L 373.047 235.547 364.063 235.547 L 355.078 235.547 355.078 233.008 L 355.078 230.469 364.063 230.469 L 373.047 230.469 373.047 233.008 " stroke="none" fill="#fbfbfb" fill-rule="evenodd"></path></g></svg>