<svg width="31" height="28" viewBox="0 0 31 28" fill="none" xmlns="http://www.w3.org/2000/svg">
<path d="M10.6667 17.25H20.3333M3.57778 10.75H27.4222C28.3246 10.75 28.7757 10.75 29.1203 10.5729C29.4235 10.4171 29.6699 10.1685 29.8244 9.86273C30 9.51513 30 9.06008 30 8.15V3.6C30 2.68992 30 2.23487 29.8244 1.88727C29.6699 1.58151 29.4235 1.33291 29.1203 1.17711C28.7757 1 28.3246 1 27.4222 1H3.57778C2.67547 1 2.22432 1 1.87968 1.17711C1.57654 1.33291 1.33007 1.58151 1.17559 1.88727C1 2.23487 1 2.68992 1 3.6V8.15C1 9.06008 1 9.51513 1.17559 9.86273C1.33007 10.1685 1.57654 10.4171 1.87968 10.5729C2.22432 10.75 2.67547 10.75 3.57778 10.75ZM4.22222 10.75H26.7778V21.8C26.7778 23.6202 26.7778 24.5303 26.4266 25.2255C26.1177 25.837 25.6247 26.3342 25.0184 26.6457C24.3292 27 23.4268 27 21.6222 27H9.37778C7.57316 27 6.67085 27 5.98159 26.6457C5.37528 26.3342 4.88234 25.837 4.57343 25.2255C4.22222 24.5303 4.22222 23.6202 4.22222 21.8V10.75Z" stroke="#FFDA78" stroke-width="2" stroke-linecap="round" stroke-linejoin="round"/>
</svg>
